<svg height="512" viewBox="0 0 64 64" width="512" xmlns="http://www.w3.org/2000/svg"><g fill="#e74c3c"><path d="M58 20a5.01 5.01 0 00-4.899 4H43.5l1.5-2c1.29-1.721 2-3.852 2-6 0-5.514-4.486-10-10-10s-10 4.486-10 10c0 2.148.71 4.279 2 6l1.5 2H10.899A5.01 5.01 0 006 20c-2.757 0-5 2.243-5 5v28c0 2.757 2.243 5 5 5h52c2.757 0 5-2.243 5-5V25c0-2.757-2.243-5-5-5zm-5 28h-4v-4h4zm0-6h-4c-1.103 0-2 .897-2 2v4c0 1.103.897 2 2 2h4v2h-4c-1.103 0-2 .897-2 2v2h-2V45c0-1.654-1.346-3-3-3h-9c-1.654 0-3 1.346-3 3v11h-2V43a1 1 0 00-1-1h-7a1 1 0 00-1 1v.789c0 4.345-1.237 8.551-3.558 12.211h-2.514A22.711 22.711 0 0017 43a1 1 0 00-1-1h-5v-2h3c1.654 0 3-1.346 3-3v-2.838c0-.862.55-1.624 1.368-1.897l4.896-1.632A3.997 3.997 0 0026 26.838V26h2v1.676a4.993 4.993 0 01-3.419 4.743l-4.213 1.404A1.998 1.998 0 0019 35.721V37c0 1.654 1.346 3 3 3h20c1.654 0 3-1.346 3-3V26h2v11c0 1.654 1.346 3 3 3h3zM43 56H32V45a1 1 0 011-1h9a1 1 0 011 1zm-17 0h-8.212a24.71 24.71 0 003.211-12H26zM11 38V26h13v.838c0 .862-.55 1.624-1.368 1.897l-4.896 1.632A3.997 3.997 0 0015 34.162V37a1 1 0 01-1 1zm42 0h-3a1 1 0 01-1-1V26h4zM37 8c4.411 0 8 3.589 8 8a8.056 8.056 0 01-1.6 4.801L37 29.333l-6.4-8.532A8.056 8.056 0 0129 16c0-4.411 3.589-8 8-8zm3 23c0 1.084-1.374 2-3 2s-3-.916-3-2c0-.48.289-.944.769-1.308L36.2 31.6a.998.998 0 001.6 0l1.431-1.908c.48.364.769.828.769 1.308zm-6.435-2.914C32.579 28.829 32 29.876 32 31c0 2.206 2.243 4 5 4s5-1.794 5-4c0-1.124-.579-2.171-1.565-2.914L42 26h1v11a1 1 0 01-1 1H22a1 1 0 01-1-1v-1.279l4.214-1.405A6.991 6.991 0 0030 27.676V26h2zM3 25c0-1.654 1.346-3 3-3s3 1.346 3 3v24.002C8.164 48.373 7.125 48 6 48s-2.164.373-3 1.002zm0 28c0-1.654 1.346-3 3-3s3 1.346 3 3a1 1 0 102 0v-9h3.977a20.73 20.73 0 01-3.858 11.115l-.633.885H6c-1.654 0-3-1.346-3-3zm55 3h-9v-2h5a1 1 0 001-1c0-1.654 1.346-3 3-3s3 1.346 3 3-1.346 3-3 3zm3-6.998C60.164 48.373 59.125 48 58 48s-2.164.373-3 1.002V25c0-1.654 1.346-3 3-3s3 1.346 3 3z"/><path d="M37 20c2.757 0 5-2.243 5-5s-2.243-5-5-5-5 2.243-5 5 2.243 5 5 5zm0-8c1.654 0 3 1.346 3 3s-1.346 3-3 3-3-1.346-3-3 1.346-3 3-3z"/></g></svg>