<svg height="512" width="512" xmlns="http://www.w3.org/2000/svg"><path d="M66 16h108c27.614 0 50 22.386 50 50v108c0 27.614-22.386 50-50 50H66c-27.614 0-50-22.386-50-50V66c0-27.614 22.386-50 50-50zm272 0h108c27.614 0 50 22.386 50 50v108c0 27.614-22.386 50-50 50H338c-27.614 0-50-22.386-50-50V66c0-27.614 22.386-50 50-50z" fill="#acebe2"/><path d="M392 288c57.438 0 104 46.562 104 104s-46.562 104-104 104-104-46.562-104-104 46.562-104 104-104z" fill="#f79caf"/><path d="M66 288h108c27.614 0 50 22.386 50 50v108c0 27.614-22.386 50-50 50H66c-27.614 0-50-22.386-50-50V338c0-27.614 22.386-50 50-50z" fill="#acebe2"/><path d="M224 66v108c0 27.61-22.39 50-50 50h-40c27.61 0 50-22.39 50-50V66c0-27.61-22.39-50-50-50h40c27.61 0 50 22.39 50 50zm272 0v108c0 27.61-22.39 50-50 50h-40c27.61 0 50-22.39 50-50V66c0-27.61-22.39-50-50-50h40c27.61 0 50 22.39 50 50z" fill="#98d7ce"/><path d="M496 392c0 28.72-11.64 54.72-30.46 73.54S420.72 496 392 496c-6.84 0-13.53-.66-20-1.93 20.7-4.02 39.2-14.19 53.54-28.53C444.36 446.72 456 420.72 456 392c0-50.6-36.13-92.75-84-102.07a103.78 103.78 0 0120-1.93c57.44 0 104 46.56 104 104z" fill="#e3889b"/><path d="M224 338v108c0 27.61-22.39 50-50 50h-40c27.61 0 50-22.39 50-50V338c0-27.61-22.39-50-50-50h40c27.61 0 50 22.39 50 50z" fill="#98d7ce"/><path d="M174 240H66c-36.393 0-66-29.607-66-66V66C0 29.607 29.607 0 66 0h108c36.393 0 66 29.607 66 66v108c0 36.393-29.607 66-66 66zM66 32c-18.748 0-34 15.252-34 34v108c0 18.748 15.252 34 34 34h108c18.748 0 34-15.252 34-34V66c0-18.748-15.252-34-34-34zm380 208H338c-36.393 0-66-29.607-66-66V66c0-36.393 29.607-66 66-66h108c36.393 0 66 29.607 66 66v108c0 36.393-29.607 66-66 66zM338 32c-18.748 0-34 15.252-34 34v108c0 18.748 15.252 34 34 34h108c18.748 0 34-15.252 34-34V66c0-18.748-15.252-34-34-34zm54 480c-66.168 0-120-53.832-120-120s53.832-120 120-120 120 53.832 120 120-53.832 120-120 120zm0-208c-48.523 0-88 39.477-88 88s39.477 88 88 88 88-39.477 88-88-39.477-88-88-88zM174 512H66c-36.393 0-66-29.607-66-66V338c0-36.393 29.607-66 66-66h108c36.393 0 66 29.607 66 66v108c0 36.393-29.607 66-66 66zM66 304c-18.748 0-34 15.252-34 34v108c0 18.748 15.252 34 34 34h108c18.748 0 34-15.252 34-34V338c0-18.748-15.252-34-34-34z"/></svg>