<svg id="Capa_1" enable-background="new 0 0 511.996 511.996" height="512" viewBox="0 0 511.996 511.996" width="512" xmlns="http://www.w3.org/2000/svg"><g><path d="m90.812 273.2h2.872c-.281 1.588-.424 3.232-.424 4.894 0 9.571 4.717 17.358 10.515 17.358s10.516-7.787 10.516-17.358-4.718-17.358-10.516-17.358c-.36 0-12.45.091-12.963.095-3.41 0-6.185 2.774-6.185 6.185.001 3.409 2.775 6.184 6.185 6.184z"/><path d="m202.545 295.451c5.798 0 10.516-7.787 10.516-17.358 0-1.658-.143-3.303-.425-4.894h3.664c3.41 0 6.185-2.774 6.185-6.185 0-3.41-2.774-6.184-6.185-6.185-.567-.004-13.396-.095-13.755-.095-5.798 0-10.515 7.787-10.515 17.358s4.717 17.359 10.515 17.359z"/><path d="m153.556 341.786c6.993 0 13.985-2.661 19.309-7.984 2.93-2.929 2.93-7.678.001-10.606s-7.678-2.931-10.606-.001c-4.798 4.798-12.605 4.799-17.405 0-2.928-2.929-7.677-2.929-10.606.001-2.929 2.929-2.929 7.678.001 10.606 5.321 5.323 12.313 7.984 19.306 7.984z"/><path d="m379.613 0c-71.823 0-130.277 58.319-130.507 130.089-22.033-19.774-50.494-30.803-80.778-30.803h-29.55c-26.924 0-52.418 8.641-73.726 24.99-20.627 15.826-35.869 38.248-42.921 63.136-1.129 3.985 1.187 8.131 5.171 9.26.684.194 1.372.286 2.049.286 3.27 0 6.276-2.156 7.212-5.458 12.881-45.462 54.913-77.214 102.215-77.214h29.55c32.508 0 62.621 14.501 82.918 39.837 3.541 19.299 11.341 37.125 22.386 52.467.603 4.556.925 9.228.925 13.925v40.322c-1.258.292-2.481.651-3.641 1.111v-16.478c0-3.493-2.411-6.523-5.813-7.308-30.22-6.972-50.789-48.17-50.99-48.579-1.064-2.175-3.114-3.703-5.503-4.101-2.394-.399-4.824.383-6.536 2.095-31.453 31.451-119.966 49.975-158.595 51.084-4.057.117-7.284 3.439-7.284 7.497v15.787c-1.159-.459-2.381-.818-3.638-1.109v-40.319c0-.469-.002-.946.016-1.416.151-4.139-3.081-7.618-7.221-7.77-4.14-.158-7.617 3.082-7.77 7.221-.023.651-.025 1.313-.025 1.964v41.251c-7.257 2.806-12.766 9.043-14.66 17.433-.682 3.017-1.027 6.128-1.027 9.247 0 13.178 6.132 24.945 15.685 32.618v64.823c0 4.142 3.357 7.5 7.5 7.5h94.708v4.652c-7.384 2.123-14.665 4.512-21.701 7.151-13.487 5.042-25.844 10.903-36.728 17.42-8.025 4.808-13.448 12.905-14.881 22.23-2.094 13.812-5.056 35.251-7.272 58.956-.196 2.102.502 4.188 1.923 5.749 1.422 1.561 3.435 2.45 5.545 2.45h160.59c4.143 0 7.5-3.358 7.5-7.5s-3.357-7.5-7.5-7.5h-28.396c-1.46-8.669-3.386-16.204-5.753-22.509l7.342-8.691 2.572 2.472c1.413 1.358 3.282 2.093 5.198 2.093.568 0 1.142-.064 1.708-.197 2.475-.579 4.487-2.371 5.349-4.762l15.621-43.383c9.889 4.049 19.023 8.557 27.206 13.46 4.19 2.51 7.019 6.744 7.76 11.617 1.496 9.812 4.166 28.456 6.371 49.899h-14.977c-4.143 0-7.5 3.358-7.5 7.5s3.357 7.5 7.5 7.5h23.25c2.11 0 4.124-.889 5.545-2.45s2.119-3.647 1.923-5.749c-2.357-25.199-5.575-47.757-7.283-58.959-1.416-9.308-6.84-17.409-14.879-22.226-10.881-6.52-23.239-12.382-36.722-17.418-7.04-2.64-14.323-5.03-21.712-7.156v-4.65h94.702c4.143 0 7.5-3.358 7.5-7.5v-64.818c9.557-7.673 15.691-19.442 15.691-32.624 0-3.118-.346-6.229-1.027-9.246-1.895-8.393-7.408-14.628-14.669-17.433v-36.875c23.439 22.375 55.17 36.133 90.056 36.133 71.965 0 130.513-58.548 130.513-130.513s-58.55-130.511-130.515-130.511zm-248.762 238.622c23.45-6.719 54.135-17.825 74.518-33.964 7.991 13.182 25.704 37.851 50.549 46.445v54.712c0 40.017-32.556 72.572-72.572 72.572h-3.436c-.016 0-.032-.002-.048-.002h-52.598c-.016 0-.032.002-.048.002h-3.447c-40.017 0-72.572-32.556-72.572-72.572v-21.231h.006c0-.045-.006-.089-.006-.135v-31.148c22.761-1.519 53.066-7.061 79.654-14.679zm-113.323 43.882c1.772-7.852 8.868-7.47 10.269-7.312 1.397.156 8.334 1.339 8.398 9.286v21.337c0 2.869.143 5.705.414 8.504-11.363-3.119-19.739-13.533-19.739-25.873 0-2.008.222-4.007.658-5.942zm15.027 46.254c2.283.632 4.641 1.082 7.062 1.317 5.753 19.924 18.403 36.951 35.189 48.312h-42.251zm89.507 120.682-11.773-32.696c3.612-1.242 7.277-2.412 10.974-3.514 2.753 8.901 9.094 16.237 17.323 20.322zm-60.781-2.335c.75-4.883 3.579-9.12 7.76-11.625 8.184-4.9 17.317-9.407 27.206-13.458l15.62 43.38c.861 2.391 2.874 4.183 5.349 4.762 2.474.581 5.073-.134 6.906-1.896l2.571-2.472 7.34 8.689c-2.362 6.296-4.285 13.832-5.745 22.51h-73.368c2.059-20.055 4.543-37.898 6.361-49.89zm82.232 49.891c1.156-6.28 2.573-11.755 4.237-16.373h11.613c1.656 4.612 3.087 10.135 4.245 16.373zm17.428-31.372h-14.759l-8.654-10.245 16.033-15.415 16.033 15.415zm24.121-16.184-16.526-15.888c8.23-4.085 14.571-11.422 17.324-20.324 3.698 1.103 7.363 2.272 10.975 3.515zm-12.702-46.177c0 10.362-8.428 18.793-18.789 18.798-.007 0-.013 0-.02 0-10.325-.005-18.727-8.38-18.784-18.694-.002-.039-.003-.077-.005-.115v-9.864h37.598zm102.202-24.875h-42.256c16.786-11.361 29.436-28.388 35.189-48.312 2.423-.235 4.782-.685 7.067-1.317zm15.692-89.942c0 12.344-8.382 22.762-19.751 25.876.271-2.8.414-5.637.414-8.507v-21.231h.006c0-8.047 7-9.235 8.403-9.392 1.407-.157 8.496-.538 10.27 7.312.436 1.935.658 3.934.658 5.942zm153.469-61.892-3.894-6.745c-2.07-3.588-6.659-4.816-10.245-2.745-3.587 2.071-4.816 6.658-2.745 10.245l3.905 6.763c-13.304 6.596-28.051 10.7-43.63 11.703v-18.27c0-4.142-3.357-7.5-7.5-7.5s-7.5 3.358-7.5 7.5v18.27c-15.579-1.003-30.325-5.107-43.63-11.703l3.905-6.763c2.071-3.587.842-8.174-2.745-10.245-3.587-2.072-8.173-.843-10.245 2.745l-3.895 6.746c-12.616-8.45-23.482-19.315-31.932-31.932l6.745-3.895c3.587-2.071 4.816-6.658 2.745-10.245-2.072-3.588-6.66-4.816-10.245-2.745l-6.764 3.905c-6.595-13.305-10.7-28.051-11.703-43.63h18.27c4.143 0 7.5-3.358 7.5-7.5s-3.357-7.5-7.5-7.5h-18.27c1.004-15.579 5.108-30.326 11.703-43.63l6.764 3.905c1.181.682 2.471 1.006 3.743 1.006 2.592 0 5.113-1.345 6.502-3.751 2.071-3.587.842-8.174-2.745-10.245l-6.745-3.895c8.449-12.616 19.315-23.482 31.932-31.932l3.895 6.746c1.39 2.406 3.91 3.751 6.502 3.751 1.272 0 2.562-.325 3.743-1.006 3.587-2.071 4.816-6.658 2.745-10.245l-3.905-6.763c13.304-6.596 28.051-10.7 43.63-11.703v18.269c0 4.142 3.357 7.5 7.5 7.5s7.5-3.358 7.5-7.5v-18.27c15.579 1.003 30.326 5.107 43.63 11.703l-3.905 6.763c-2.071 3.587-.842 8.174 2.745 10.245 1.182.682 2.471 1.006 3.743 1.006 2.592 0 5.113-1.346 6.502-3.751l3.894-6.745c12.616 8.449 23.482 19.315 31.932 31.932l-6.745 3.894c-3.587 2.071-4.816 6.658-2.745 10.245 1.39 2.406 3.91 3.751 6.502 3.751 1.272 0 2.562-.324 3.743-1.006l6.763-3.905c6.595 13.304 10.699 28.051 11.703 43.63h-18.269c-4.143 0-7.5 3.358-7.5 7.5s3.357 7.5 7.5 7.5h18.269c-1.003 15.579-5.107 30.326-11.703 43.63l-6.763-3.905c-3.586-2.072-8.175-.843-10.245 2.745-2.071 3.587-.842 8.174 2.745 10.245l6.745 3.894c-8.45 12.618-19.316 23.483-31.932 31.933z"/><path d="m379.613 67.327c-12.776 0-23.171 10.395-23.171 23.171v16.844h-33.985c-12.776 0-23.171 10.395-23.171 23.171s10.395 23.171 23.171 23.171h57.157.001c12.775-.001 23.169-10.395 23.169-23.171v-40.015c0-12.776-10.394-23.171-23.171-23.171zm-65.327 63.186c0-4.505 3.665-8.171 8.171-8.171h33.985v8.171c0 2.875.531 5.628 1.492 8.171h-35.478c-4.505 0-8.17-3.666-8.17-8.171zm73.498 0c0 4.505-3.665 8.171-8.171 8.171s-8.171-3.666-8.171-8.171v-40.015c0-4.505 3.665-8.171 8.171-8.171s8.171 3.666 8.171 8.171z"/></g></svg>